<svg width="159" height="181" viewBox="0 0 159 181" fill="none" xmlns="http://www.w3.org/2000/svg">
<path d="M130.791 90.064C130.791 118.28 107.917 141.155 79.7014 141.155C51.4841 141.155 28.6107 118.28 28.6107 90.064C28.6107 61.848 51.4841 38.9747 79.7014 38.9747C107.917 38.9747 130.791 61.848 130.791 90.064Z" fill="#498AB9"/>
<path d="M85.072 17.7866H85.0694C87.676 16.0479 89.396 13.0839 89.396 9.71728C89.396 4.36261 85.0547 0.0226179 79.7014 0.0226179C74.3467 0.0226179 70.0067 4.36261 70.0067 9.71728C70.0067 13.0839 71.7254 16.0479 74.332 17.7866H74.3294C80.1494 22.1626 79.5414 32.3266 71.964 39.9039H79.7014H87.4374C79.86 32.3266 79.252 22.1626 85.072 17.7866Z" fill="#498AB9"/>
<path d="M19.792 49.2734L19.7907 49.2748C19.5894 46.1494 17.8814 43.1787 14.964 41.4961C10.328 38.8187 4.3987 40.4068 1.72136 45.0441C-0.954638 49.6801 0.633903 55.6094 5.2707 58.2868C8.1867 59.9694 11.6134 59.9627 14.4214 58.5761L14.42 58.5774C21.12 55.7254 29.6187 61.3334 32.392 71.6841L36.26 64.9841L40.128 58.2841C29.7774 61.0587 20.672 56.5027 19.792 49.2734" fill="#498AB9"/>
<path d="M14.42 121.552L14.4214 121.553C11.6134 120.165 8.1867 120.16 5.2707 121.843C0.633903 124.52 -0.954638 130.449 1.72136 135.085C4.3987 139.723 10.328 141.311 14.964 138.635C17.8814 136.951 19.5894 133.98 19.7907 130.853L19.792 130.856C20.672 123.627 29.7774 119.072 40.128 121.845L36.26 115.145L32.392 108.445C29.6187 118.796 21.12 124.404 14.42 121.552" fill="#498AB9"/>
<path d="M74.3294 162.343H74.332C71.7254 164.081 70.0067 167.045 70.0067 170.413C70.0067 175.767 74.3467 180.108 79.7014 180.108C85.0547 180.108 89.396 175.767 89.396 170.413C89.396 167.045 87.676 164.081 85.0694 162.343H85.072C79.252 157.967 79.86 147.803 87.4374 140.225H79.7014H71.964C79.5414 147.803 80.1494 157.967 74.3294 162.343Z" fill="#498AB9"/>
<path d="M139.609 130.856L139.612 130.853C139.813 133.98 141.52 136.951 144.437 138.635C149.073 141.311 155.003 139.723 157.68 135.085C160.357 130.449 158.768 124.52 154.131 121.843C151.215 120.16 147.788 120.165 144.98 121.553L144.981 121.552C138.281 124.405 129.784 118.796 127.009 108.445L123.141 115.145L119.273 121.845C129.624 119.072 138.731 123.627 139.609 130.856" fill="#498AB9"/>
<path d="M144.981 58.5774L144.98 58.5761C147.788 59.9627 151.215 59.9694 154.131 58.2868C158.768 55.6094 160.357 49.6801 157.68 45.0441C155.003 40.4068 149.073 38.8187 144.437 41.4961C141.52 43.1787 139.813 46.1494 139.612 49.2748L139.609 49.2734C138.731 56.5027 129.624 61.0587 119.273 58.2841L123.141 64.9841L127.009 71.6841C129.784 61.3334 138.281 55.7254 144.981 58.5774" fill="#498AB9"/>
<path d="M110.848 90.0641C110.848 107.267 96.9027 121.212 79.7013 121.212C62.4987 121.212 48.5533 107.267 48.5533 90.0641C48.5533 72.8627 62.4987 58.9174 79.7013 58.9174C96.9027 58.9174 110.848 72.8627 110.848 90.0641" fill="#57ADD8"/>
<path d="M58.3294 42.3054L58.3267 42.3067C59.7161 39.4987 59.7214 36.072 58.0374 33.1547C55.3614 28.5187 49.4321 26.9294 44.7961 29.6067C40.1587 32.2841 38.5694 38.2134 41.2467 42.8494C42.9307 45.7668 45.9014 47.4734 49.0281 47.6761H49.0254C56.2547 48.5561 60.8094 57.6628 58.0361 68.0134L64.7361 64.1454L71.4361 60.2774C61.0854 57.5028 55.4774 49.0054 58.3294 42.3054" fill="#57ADD8"/>
<path d="M27.6533 84.6933V84.696C25.916 82.0893 22.952 80.3706 19.584 80.3706C14.2307 80.3706 9.89069 84.7107 9.89069 90.064C9.89069 95.4187 14.2307 99.7587 19.584 99.7587C22.952 99.7587 25.916 98.04 27.6533 95.4333V95.436C32.0307 89.6147 42.1947 90.224 49.772 97.8013V90.064V82.328C42.1947 89.9053 32.0307 90.5133 27.6533 84.6933Z" fill="#57ADD8"/>
<path d="M49.0254 132.452L49.0281 132.453C45.9014 132.656 42.9307 134.363 41.2467 137.28C38.5694 141.916 40.1587 147.845 44.7961 150.523C49.4321 153.199 55.3614 151.611 58.0374 146.973C59.7214 144.057 59.7161 140.631 58.3267 137.823L58.3294 137.824C55.4774 131.124 61.0854 122.627 71.4361 119.852L64.7361 115.984L58.0361 112.116C60.8094 122.467 56.2547 131.573 49.0254 132.452Z" fill="#57ADD8"/>
<path d="M101.072 137.824L101.075 137.823C99.6853 140.631 99.68 144.057 101.364 146.973C104.04 151.611 109.969 153.199 114.607 150.523C119.243 147.845 120.832 141.916 118.155 137.28C116.471 134.363 113.5 132.656 110.373 132.453L110.376 132.452C103.147 131.573 98.592 122.467 101.365 112.116L94.6653 115.984L87.9653 119.853C98.316 122.627 103.924 131.124 101.072 137.824Z" fill="#57ADD8"/>
<path d="M131.748 95.436V95.4333C133.485 98.04 136.449 99.7587 139.817 99.7587C145.171 99.7587 149.511 95.4187 149.511 90.064C149.511 84.7107 145.171 80.3706 139.817 80.3706C136.449 80.3706 133.485 82.0893 131.748 84.696V84.6933C127.371 90.5133 117.207 89.9053 109.629 82.328V90.064V97.8013C117.207 90.224 127.371 89.6147 131.748 95.436" fill="#57ADD8"/>
<path d="M110.376 47.6774L110.373 47.6761C113.5 47.4734 116.471 45.7668 118.155 42.8494C120.832 38.2134 119.243 32.2841 114.607 29.6067C109.969 26.9294 104.04 28.5187 101.364 33.1547C99.68 36.072 99.6853 39.4987 101.075 42.3067L101.072 42.3054C103.924 49.0054 98.316 57.5028 87.9653 60.2774L94.6653 64.1454L101.365 68.0134C98.592 57.6628 103.147 48.5561 110.376 47.6774Z" fill="#57ADD8"/>
<path d="M96.1507 90.064C96.1507 99.1493 88.7854 106.515 79.7014 106.515C70.6161 106.515 63.2507 99.1493 63.2507 90.064C63.2507 80.98 70.6161 73.6147 79.7014 73.6147C88.7854 73.6147 96.1507 80.98 96.1507 90.064Z" fill="white"/>
</svg>
