<svg width="266" height="265" viewBox="0 0 266 265" fill="none" xmlns="http://www.w3.org/2000/svg">
<path d="M185 131.5C182 131.5 179.5 129 179.5 126V82.9C179.5 79.9 182 77.4 185 77.4C188.7 77.4 192.3 78.9 194.9 81.5C197.5 84.1 199 87.6 199 91.4V126C199 129 196.5 131.5 193.5 131.5H185Z" fill="#FC5E75"/>
<path d="M185 82.9C187.4 82.9 189.5 83.9 191 85.4C192.5 86.9 193.5 89.1 193.5 91.4V126H185V82.9ZM185 71.9C178.9 71.9 174 76.8 174 82.9V126C174 132.1 178.9 137 185 137H193.5C199.6 137 204.5 132.1 204.5 126V91.4C204.5 86.2 202.5 81.3 198.8 77.6C195.1 73.9 190.2 71.9 185 71.9Z" fill="#231F20"/>
<path d="M193.5 105.2V126H185V93.3C187.6 97.5 190.4 101.5 193.5 105.2Z" fill="#D63C61"/>
<path d="M72.5 131.5C69.5 131.5 67 129 67 126V91.4C67 87.7 68.5 84.1 71.1 81.5C73.8 78.9 77.3 77.4 81 77.4C84 77.4 86.5 79.9 86.5 82.9V126C86.5 129 84 131.5 81 131.5H72.5Z" fill="#FC5E75"/>
<path d="M81 82.9V126H72.5V91.4C72.5 89.1 73.5 86.9 75 85.4C76.5 83.9 78.6 82.9 81 82.9ZM81 71.9C75.8 71.9 70.9001 73.9 67.2001 77.6C63.5001 81.3 61.5 86.2 61.5 91.4V126C61.5 132.1 66.4 137 72.5 137H81C87.1 137 92 132.1 92 126V82.9C92 76.8 87 71.9 81 71.9Z" fill="#231F20"/>
<path d="M81 126H72.5V105.2C75.6 101.5 78.5 97.5 81 93.4" fill="#D63C61"/>
<path d="M112.4 259.4C102.2 259.4 93.8999 251.1 93.8999 240.9V231.2C93.8999 228.2 96.3999 225.7 99.3999 225.7H126.4C129.4 225.7 131.9 228.2 131.9 231.2V240.9C131.9 251.1 123.6 259.4 113.4 259.4H112.4Z" fill="#CECECE"/>
<path d="M126.4 231.2V240.9C126.4 248.1 120.6 253.9 113.4 253.9H112.4C105.2 253.9 99.3999 248.1 99.3999 240.9V231.2H126.4ZM126.4 220.2H99.3999C93.2999 220.2 88.3999 225.1 88.3999 231.2V240.9C88.3999 254.1 99.1999 264.9 112.4 264.9H113.4C126.6 264.9 137.4 254.1 137.4 240.9V231.2C137.4 225.1 132.5 220.2 126.4 220.2Z" fill="#231F20"/>
<path d="M152.6 259.4C142.4 259.4 134.1 251.1 134.1 240.9V231.2C134.1 228.2 136.6 225.7 139.6 225.7H166.6C169.6 225.7 172.1 228.2 172.1 231.2V240.9C172.1 251.1 163.8 259.4 153.6 259.4H152.6Z" fill="#CECECE"/>
<path d="M166.6 231.2V240.9C166.6 248.1 160.8 253.9 153.6 253.9H152.6C145.4 253.9 139.6 248.1 139.6 240.9V231.2H166.6ZM166.6 220.2H139.6C133.5 220.2 128.6 225.1 128.6 231.2V240.9C128.6 254.1 139.4 264.9 152.6 264.9H153.6C166.8 264.9 177.6 254.1 177.6 240.9V231.2C177.6 225.1 172.6 220.2 166.6 220.2Z" fill="#231F20"/>
<path d="M91.8001 229.8C89.6001 229.8 87.6001 228.5 86.7001 226.4L78.9001 207.6C74.2001 196.2 63.7001 188 51.6001 186.2C49.9001 185.9 48.1001 185.8 46.3001 185.8H11.1001C8.1001 185.8 5.6001 183.3 5.6001 180.3C5.6001 166.7 14.3001 155 27.3001 151.1L30.2001 150.2C67.2001 139 96.4001 108.9 106.3 71.5L118.6 25C120.4 18.3 126.2 13.9 133.1 13.9C140 13.9 145.8 18.4 147.6 25L159.9 71.5C169.8 108.9 199 139 236 150.2L238.9 151.1C245.2 153 250.7 156.8 254.6 162.1C258.5 167.4 260.6 173.7 260.6 180.3C260.6 183.3 258.1 185.8 255.1 185.8H219.9C218.1 185.8 216.3 185.9 214.6 186.2C202.4 188 192 196.2 187.2 207.6L179.4 226.4C178.5 228.5 176.5 229.8 174.3 229.8H91.8001V229.8Z" fill="#CECECE"/>
<path d="M133 19.4C137 19.4 140.9 21.8 142.2 26.5L154.5 73C165 112.5 195.2 143.8 234.3 155.6L237.2 156.5C242.5 158.1 246.9 161.3 250.1 165.5C253.2 169.7 255 174.9 255 180.4H219.8C217.7 180.4 215.7 180.6 213.6 180.9C199.6 183 187.6 192.3 182 205.6L174.2 224.4H91.8L84 205.6C78.5 192.3 66.4 183 52.4 180.9C50.4 180.6 48.3 180.4 46.2 180.4H11C11 169.3 18.2 159.6 28.8 156.4L31.7 155.5C70.8 143.7 101 112.5 111.5 72.9L123.8 26.4C125.1 21.7 129 19.4 133 19.4ZM133 8.39999C123.6 8.39999 115.6 14.5 113.2 23.6L100.9 70.1C91.5 105.7 63.8 134.3 28.5 144.9L25.6 145.8C18.1 148.1 11.7 152.6 7.10004 158.8C2.50004 165.1 0 172.5 0 180.3C0 186.4 4.9 191.3 11 191.3H46.2C47.7 191.3 49.2 191.4 50.7 191.6C61 193.2 69.8 200.1 73.8 209.7L81.6 228.5C83.3 232.6 87.3 235.3 91.8 235.3H174.2C178.6 235.3 182.7 232.6 184.4 228.5L192.2 209.7C196.2 200.1 205 193.2 215.3 191.6C216.8 191.4 218.3 191.3 219.8 191.3H255C261.1 191.3 266 186.4 266 180.3C266 172.5 263.5 165.1 258.9 158.8C254.2 152.5 247.8 148 240.4 145.8L237.5 144.9C202.3 134.3 174.6 105.6 165.1 70.1L152.8 23.6C150.4 14.5 142.4 8.39999 133 8.39999Z" fill="#231F20"/>
<path d="M114.4 188.2V215.4C114.4 218.5 114 221.5 113.1 224.3H91.7001L83.9 205.5C78.4 192.2 66.3 182.9 52.3 180.8C55.5 169.9 65.6 161.9 77.6 161.9H88C102.6 161.8 114.4 173.6 114.4 188.2Z" fill="#B2B1AF"/>
<path d="M213.6 180.8C199.6 182.9 187.6 192.2 182 205.5L174.2 224.3H152.9C152.1 221.5 151.6 218.5 151.6 215.4V188.2C151.6 173.7 163.4 161.9 178 161.9H188.4C200.3 161.8 210.4 169.8 213.6 180.8Z" fill="#B2B1AF"/>
<path d="M127 114.2C124.1 114.2 121.5 112.9 119.7 110.6C117.9 108.3 117.4 105.4 118.1 102.6L124.5 79.2C125.6 75.3 129 72.7 133 72.7C137 72.7 140.4 75.3 141.5 79.2L147.8 102.6C148.6 105.4 148 108.3 146.2 110.6C144.4 112.9 141.8 114.2 138.9 114.2H127Z" fill="#6BB7DD"/>
<path d="M133 78.1C134.4 78.1 135.7 78.9 136.2 80.5L142.5 103.9C143.1 106.2 141.4 108.5 139 108.5H127C124.6 108.5 122.8 106.2 123.4 103.9L129.7 80.5C130.3 78.9 131.6 78.1 133 78.1ZM133 67.1C126.5 67.1 120.9 71.3 119.2 77.7L112.9 101.1C111.7 105.6 112.6 110.2 115.4 113.9C118.2 117.6 122.4 119.7 127.1 119.7H139.1C143.7 119.7 148 117.6 150.8 113.9C153.6 110.2 154.5 105.6 153.3 101.1L146.9 77.6C145.1 71.4 139.5 67.1 133 67.1Z" fill="#231F20"/>
<path d="M129 153.2C122.8 153.2 117.8 148.2 117.8 142V127C117.8 120.8 122.8 115.8 129 115.8H136.9C143.1 115.8 148.1 120.8 148.1 127V142C148.1 148.2 143.1 153.2 136.9 153.2H129Z" fill="#6BB7DD"/>
<path d="M137 121.2C140.2 121.2 142.7 123.8 142.7 126.9V141.9C142.7 145.1 140.1 147.6 137 147.6H129.1C125.9 147.6 123.4 145 123.4 141.9V126.9C123.4 123.7 126 121.2 129.1 121.2H137ZM137 110.2H129.1C119.9 110.2 112.4 117.7 112.4 126.9V141.9C112.4 151.1 119.9 158.6 129.1 158.6H137C146.2 158.6 153.7 151.1 153.7 141.9V126.9C153.7 117.7 146.2 110.2 137 110.2Z" fill="#231F20"/>
<path d="M84.7002 209.3H181.3" stroke="#231F20" stroke-width="11" stroke-miterlimit="10" stroke-linecap="round" stroke-linejoin="round"/>
<path d="M189.3 77.2V6" stroke="#231F20" stroke-width="11" stroke-miterlimit="10" stroke-linecap="round" stroke-linejoin="round"/>
<path d="M76.7002 77.2V6" stroke="#231F20" stroke-width="11" stroke-miterlimit="10" stroke-linecap="round" stroke-linejoin="round"/>
<path d="M170 132.7C170 132.7 183.2 150.4 202.5 157.8" stroke="#F2F2F2" stroke-width="11" stroke-miterlimit="10" stroke-linecap="round" stroke-linejoin="round"/>
<path d="M82.9001 232.2C73.6001 232.2 66.1001 224.6 66.1001 215.4V188.2C66.1001 181.8 71.3002 176.6 77.7002 176.6H88.1001C94.5001 176.6 99.7002 181.8 99.7002 188.2V215.4C99.7002 224.7 92.2001 232.2 82.9001 232.2Z" fill="#FC5E75"/>
<path d="M88.1001 182C91.5001 182 94.2002 184.7 94.2002 188.1V215.3C94.2002 221.6 89.1001 226.6 82.9001 226.6C76.6001 226.6 71.6001 221.5 71.6001 215.3V188.1C71.6001 184.7 74.3002 182 77.7002 182H88.1001ZM88.1001 171H77.7002C68.3002 171 60.6001 178.7 60.6001 188.1V215.3C60.6001 227.6 70.6001 237.6 82.9001 237.6C95.2001 237.6 105.2 227.6 105.2 215.3V188.1C105.2 178.7 97.5001 171 88.1001 171Z" fill="#231F20"/>
<path d="M183.1 232.2C173.8 232.2 166.3 224.6 166.3 215.4V188.2C166.3 181.8 171.5 176.6 177.9 176.6H188.3C194.7 176.6 199.9 181.8 199.9 188.2V215.4C200 224.7 192.4 232.2 183.1 232.2Z" fill="#FC5E75"/>
<path d="M188.3 182C191.7 182 194.4 184.7 194.4 188.1V215.3C194.4 221.6 189.3 226.6 183.1 226.6C176.8 226.6 171.8 221.5 171.8 215.3V188.1C171.8 184.7 174.5 182 177.9 182H188.3ZM188.3 171H177.9C168.5 171 160.8 178.7 160.8 188.1V215.3C160.8 227.6 170.8 237.6 183.1 237.6C195.4 237.6 205.4 227.6 205.4 215.3V188.1C205.5 178.7 197.8 171 188.3 171Z" fill="#231F20"/>
</svg>
