<svg width="199" height="340" viewBox="0 0 199 340" fill="none" xmlns="http://www.w3.org/2000/svg">
<path d="M177.732 139.677C178.372 140.62 178.489 151.543 178.059 170.388C177.394 199.566 177.397 199.639 179.559 201.39C183.628 204.685 183.396 217.025 180.04 223.641C179.612 224.485 177.79 224.325 177.715 225.268C175.605 251.616 174.915 291.38 174.555 296.641C173.166 316.924 172.799 318.692 168.945 324.129C167.41 326.294 166.202 329.247 166.173 330.629C166.128 332.799 165.61 333.183 162.371 333.451C160.149 333.635 158.621 333.319 158.621 332.676C158.621 331.971 157.656 332.082 155.871 332.991C153.109 334.399 140.067 336.823 131.997 337.525C107.628 339.644 82.429 340.965 58.6209 336.481C50.9236 334.965 47.2792 333.772 40.8874 331.259C39.8492 330.85 39.1469 330.36 37.6568 330.384C37.1444 330.392 36.8534 331.277 36.2688 331.261C35.4549 331.237 33.2135 331.336 32.2772 331.149C29.0209 330.497 31.332 326.455 28.991 322.823C23.9484 322.944 24.2693 304.377 22.9097 294.972C21.5489 285.559 21.3297 276.013 20.8524 266.515C20.4805 259.113 20.7018 258.636 20.2244 244.292C19.7733 230.737 20.0134 221.971 19.4714 222.793C18.7525 223.884 18.3208 223.799 17.2088 222.346C15.1599 219.67 13.6954 212.952 14.8371 206.939C16.0209 200.704 17.2405 199.641 19.18 199.641C20.4026 199.641 19.6297 195.072 20.6209 169.61C20.8019 145.968 21.5615 146.77 21.677 139.981C20.8034 138.569 17.3709 137.674 17.3709 137.674C15.0334 137.692 10.6459 138.577 7.62095 139.641C1.17656 141.908 0.925344 141.943 0.139134 140.67C-0.612106 139.455 1.80928 134.669 4.26859 132.509C7.32945 129.821 12.3387 127.641 15.4563 127.641C22.6943 124.036 20.6122 121.199 20.697 113.482C20.5237 102.5 22.3589 83.762 21.027 71.391C16.1555 34.2625 32.2146 28.341 32.4199 20.0589C30.6965 19.3882 31.6043 17.3169 33.3258 15.4151C35.7964 12.685 39.1846 11.0623 48.6704 8.06573C75.9646 -1.19242 106.566 -3.35819 147.621 6.22097C162.054 9.58849 168.037 13.1213 170.261 17.3697C171.656 20.0358 171.476 20.577 170.871 21.3661C183.717 50.0982 178.226 51.796 178.081 76.5757C178.212 90.8955 177.752 105.911 178.621 113.619C179.594 123.097 177.941 123.892 180.536 126.888C184.413 128.331 189.382 128.979 194.687 133.589C198.411 136.825 198.714 137.92 198.437 141.291C198.117 145.173 195.623 147.072 194.094 144.597C193.175 143.111 181.647 137.643 179.43 137.642L177.732 139.677Z" fill="black"/>
<path fill-rule="evenodd" clip-rule="evenodd" d="M150 80.2565C144.4 78.3784 132.531 75.3182 125.177 73.8568C118.093 72.449 112.442 70.9434 112.087 70.3693C111.968 70.1761 111.495 66.0174 111.037 61.1278C109.323 42.8502 108.588 37.4079 107.843 37.459C106.901 37.5236 106.748 40.3838 107.01 53.0935C107.312 67.7623 106.999 70.8599 104.844 74.5372C103.53 76.7788 101.925 77.7027 99.3428 77.7027C97.7426 77.7027 97.2571 77.4928 96.3421 76.4055C94.3795 74.073 94.2499 72.8968 93.9379 54.5915C93.7754 45.0581 93.6117 37.2099 93.5741 37.1511C93.3426 36.7889 92.6972 37.1581 92.4505 37.7931C92.2905 38.205 91.5968 43.6457 90.909 49.8836C89.5249 62.4351 88.7936 66.7234 87.6428 69.0364C86.3488 71.6373 85.2806 72.112 79.1457 72.8134C71.2704 73.7138 69.506 74.0717 61.0375 76.4864C54.6958 78.2947 46.4035 80.2706 45.1565 80.2706C44.9739 80.2706 45.4817 77.5262 46.2849 74.1718C48.3267 65.6452 50.752 51.8714 53.0648 35.6684C54.458 25.9074 55.2918 21.3174 55.9048 20.0346C57.4137 16.8766 59.9769 15.5915 68.8965 13.5212C72.192 12.7563 76.226 11.7674 77.861 11.3238L80.8336 10.5171L82.0564 12.0005C82.8141 12.9198 83.9625 13.6868 85.0756 14.017C87.5369 14.7472 117.293 14.7163 118.665 13.9821C119.181 13.7057 119.884 12.938 120.226 12.2761L120.849 11.0727L126.329 11.861C139.005 13.6841 146.3 17.1618 146.305 21.3839C146.306 22.1114 146.065 24.4399 145.77 26.5585C144.937 32.5403 146.064 41.4798 149.561 56.6464C150.739 61.7541 152.199 68.8221 152.806 72.353C153.412 75.8838 154.017 79.3987 154.15 80.1637C154.283 80.9287 154.222 81.5371 154.015 81.5157C153.807 81.4943 152.001 80.9276 150 80.2565V80.2565Z" fill="#FF0000" stroke="black" stroke-width="0.427986"/>
<path fill-rule="evenodd" clip-rule="evenodd" d="M173.562 122.8C173.302 121.889 172.902 117.195 172.672 112.37C172.443 107.544 171.977 99.4551 171.635 94.3942C171.294 89.3332 170.894 82.4962 170.746 79.2007C170.107 64.9683 167.168 45.9917 164.112 36.3653C162.075 29.9506 161.943 27.955 163.49 26.9414C164.495 26.2831 164.7 26.285 166.493 26.9697C169.961 28.294 171.588 31.3805 173.651 40.5502C175.024 46.6465 175.029 46.7174 174.874 56.5174C174.627 72.0807 174.61 94.6892 174.832 109.669C174.984 119.854 174.906 123.578 174.536 123.951C174.153 124.337 173.925 124.068 173.562 122.8V122.8Z" fill="#FF0000" stroke="black" stroke-width="0.427986"/>
<path fill-rule="evenodd" clip-rule="evenodd" d="M23.9238 123.497C23.0589 121.019 22.9526 114.966 23.172 80.6986C23.2104 74.6961 23.2325 66.4146 23.2211 62.2952C23.1913 51.5666 24.5066 44.5109 28.35 34.7829C30.8121 28.5508 32.8444 25.2541 34.6018 24.6415C36.4744 23.9887 38.2825 24.1003 38.5845 24.8873C38.7286 25.2629 36.9073 33.0148 34.5372 42.1138C29.4162 61.7736 29.0003 63.6047 28.204 69.9989C27.0629 79.1624 26.6743 86.4257 26.3491 104.666C26.0881 119.305 25.8999 123.148 25.3851 124.353L24.7455 125.851L23.9238 123.497V123.497Z" fill="#FF0000" stroke="black" stroke-width="0.427986"/>
<path fill-rule="evenodd" clip-rule="evenodd" d="M28.805 315.218C27.6628 314.552 27.2673 312.597 26.341 303.037C23.9931 278.807 23.3073 259.946 23.0262 211.876C22.8031 173.729 23.2503 140.262 24.0095 138.283C24.3128 137.493 25.6315 137.055 26.694 137.392C28.4483 137.949 28.4784 138.669 28.0352 169.506C27.3265 218.828 27.4496 237.12 28.6574 261.954C30.04 290.381 30.779 301.103 31.8871 308.815C32.4498 312.731 32.4315 312.877 31.1958 314.346C29.9835 315.787 29.8577 315.833 28.805 315.218V315.218Z" fill="#FF0000" stroke="black" stroke-width="0.427986"/>
<path fill-rule="evenodd" clip-rule="evenodd" d="M166.627 315.593C164.745 314.928 164.462 313.52 164.958 307.293C165.782 296.946 168.004 256.435 168.819 236.913C169.05 231.382 169.441 213.567 169.689 197.325C170.329 155.421 170.764 142.259 171.559 140.721C172.54 138.824 173.309 138.326 173.989 139.146C174.872 140.21 175.318 156.985 175.041 178.707C174.168 246.995 171.803 310.217 169.983 313.901C169.221 315.444 167.978 316.07 166.627 315.593V315.593Z" fill="#FF0000" stroke="black" stroke-width="0.427986"/>
<path fill-rule="evenodd" clip-rule="evenodd" d="M100.39 246.226C100.427 173.283 100.775 128.068 101.305 127.538C101.662 127.182 104.205 127.195 108.592 127.577L111.909 127.866V222.354V316.842L108.592 317.304C106.768 317.558 104.168 317.872 102.814 318.002L100.354 318.238L100.39 246.226V246.226Z" fill="white" stroke="black" stroke-width="0.427986"/>
<path fill-rule="evenodd" clip-rule="evenodd" d="M90.9379 317.757C88.937 317.614 86.5296 317.26 85.588 316.972L83.8761 316.447L83.9703 225.857C84.0221 176.032 84.183 133.688 84.3278 131.759L84.5911 128.251L86.8015 127.8C89.3691 127.277 94.5258 126.548 94.6836 126.686C94.743 126.738 94.743 169.808 94.6836 222.399L94.5757 318.017L90.9378 317.757H90.9379Z" fill="white" stroke="black" stroke-width="0.427986"/>
<path fill-rule="evenodd" clip-rule="evenodd" d="M77.0283 314.629C72.3848 313.314 68.5003 311.767 65.7338 310.131C61.0924 307.386 56.4894 306.976 49.9158 308.723L47.1986 309.445L46.2095 308.295C41.126 302.385 40.1627 283.379 40.6408 198.414L40.9357 146.004L42.0013 144.701C46.8434 138.781 57.1797 133.894 72.4249 130.315C79.1352 128.739 79.7297 128.671 80.0596 129.442C80.7968 131.163 81.504 315.703 80.7732 315.631C80.5967 315.613 78.9115 315.163 77.0283 314.629V314.629Z" fill="#FF0000" stroke="black" stroke-width="0.427986"/>
<path fill-rule="evenodd" clip-rule="evenodd" d="M114.757 310.888C114.603 308.026 114.477 265.82 114.477 217.096V128.507L117.58 128.777C124.764 129.402 139.365 133.928 147.86 138.163C152.855 140.654 153.273 140.958 154.157 142.757C156.142 146.792 156.209 148.883 156.154 205.456C156.08 282.356 155.385 298.042 151.668 306.683C151.178 307.822 150.405 309.09 149.951 309.502C149.172 310.207 148.995 310.208 146.857 309.534C141.324 307.79 138.456 308.137 129.906 311.583C124.892 313.604 116.959 316.086 115.506 316.09C115.206 316.091 114.935 314.207 114.757 310.888V310.888V310.888Z" fill="#FF0000" stroke="black" stroke-width="0.427986"/>
<path fill-rule="evenodd" clip-rule="evenodd" d="M96.5016 222.576V126.921H98.0704H99.6392L99.3546 185.02C99.198 216.975 99.0699 260.019 99.0698 280.675L99.0696 318.231H97.7856H96.5016V222.576Z" fill="#FF0000" stroke="black" stroke-width="0.427986"/>
<path fill-rule="evenodd" clip-rule="evenodd" d="M88.5839 332.557C76.3896 330.58 66.2912 326.213 56.913 318.861C55.0298 317.384 52.7481 315.408 51.8425 314.468L50.1959 312.76L52.6985 311.815C56.0027 310.569 58.8177 310.83 62.1586 312.692C75.3909 320.068 82.3195 322.378 94.1971 323.374C106.045 324.367 117.307 322.138 128.002 316.684C135.446 312.888 137.892 312.07 140.959 312.348C142.338 312.473 143.917 312.817 144.468 313.112C145.453 313.639 145.401 313.716 141.481 317.472C133.377 325.236 122.954 330.283 110.699 332.378C104.974 333.357 94.0613 333.445 88.5839 332.557Z" fill="white" stroke="black" stroke-width="0.427986"/>
<path fill-rule="evenodd" clip-rule="evenodd" d="M190.872 139.728C188.519 138.605 185.533 137.356 184.239 136.951C179.854 135.582 178.675 134.995 178.675 134.181C178.675 133.187 180.639 131.629 181.893 131.629C183.439 131.629 189.393 134.843 191.847 137.003C193.796 138.719 195.722 141.323 195.291 141.661C195.215 141.721 193.226 140.851 190.872 139.728Z" fill="white" stroke="black" stroke-width="0.427986"/>
<path fill-rule="evenodd" clip-rule="evenodd" d="M3.44048 137.579C4.32728 136.144 12.3602 131.785 15.9369 130.797C18.1096 130.197 19.4642 131.086 19.4642 133.111C19.4642 133.916 19.3198 134.663 19.1432 134.771C18.7196 135.031 4.56145 138.049 3.76647 138.049C3.42754 138.049 3.28086 137.837 3.44048 137.579Z" fill="white" stroke="black" stroke-width="0.427986"/>
<path fill-rule="evenodd" clip-rule="evenodd" d="M37.1186 20.7763C35.1141 19.9518 36.63 17.7946 40.6495 15.7518C43.3196 14.3948 47.2716 14.1706 48.4152 15.3112C49.0741 15.9684 49.0874 16.1715 48.5394 17.201C47.3174 19.4965 39.7596 21.8625 37.1186 20.7763V20.7763Z" fill="white" stroke="black" stroke-width="0.427986"/>
<path fill-rule="evenodd" clip-rule="evenodd" d="M161.097 22.3353C158.761 21.7054 155.731 19.9869 154.35 18.5078C153.111 17.1807 153.583 15.9714 155.619 15.2619C157.583 14.577 158.508 14.6736 160.973 15.8214C165.715 18.0295 168.14 21.5352 165.593 22.5032C164.226 23.0232 163.556 22.9982 161.097 22.3353V22.3353Z" fill="white" stroke="black" stroke-width="0.427986"/>
<path fill-rule="evenodd" clip-rule="evenodd" d="M99.0696 11.3739L85.1601 11.1509L85.034 9.65302C84.815 7.04999 85.549 6.56994 90.3383 6.18409C99.1811 5.47166 115.164 6.05661 116.47 7.14048C117.16 7.71311 117.606 9.84461 117.262 10.9273C117.031 11.6544 116.666 11.7772 114.983 11.6949C113.881 11.641 106.72 11.4965 99.0696 11.3739Z" fill="#483E37" stroke="black" stroke-width="0.427986"/>
<path fill-rule="evenodd" clip-rule="evenodd" d="M86.658 337.228C75.8932 336.478 62.4638 334.402 56.3535 332.543C52.1391 331.261 38.0138 325.733 37.1764 325.038C36.341 324.344 34.9843 321.306 34.2591 318.504C33.6408 316.115 33.6529 315.901 34.5127 314.013C35.3447 312.187 35.3966 311.527 35.1732 305.608C35.0398 302.076 34.4477 294.852 33.8573 289.556C33.2668 284.259 32.5699 275.496 32.3085 270.082C32.0471 264.668 31.6567 258.12 31.4411 255.531C30.5762 245.144 30.0947 204.765 30.627 187.267C30.9099 177.969 31.2585 162.797 31.4016 153.552L31.6618 136.742L35.0096 140.111L38.3574 143.48L37.8079 162.27C37.0974 186.567 37.0884 255.117 37.7936 272.222C38.3629 286.033 39.3465 299.099 40.0793 302.586C40.9084 306.532 42.5297 309.234 46.5824 313.423C54.9783 322.102 64.5666 328.409 75.6153 332.519C90.49 338.053 106.752 338.011 122.823 332.395C127.53 330.75 136.473 325.996 140.325 323.091C146.779 318.224 152.764 311.745 155.185 307.005C156.916 303.616 157.736 296.57 158.563 278C159.088 266.206 159.818 214.951 159.883 185.341C159.91 173.336 160.056 158.941 160.208 153.352L160.486 143.19L163.802 139.874L167.119 136.558L167.12 156.242C167.122 206.483 165.342 265.118 162.793 298.74C161.874 310.86 161.887 314.558 162.855 316.823C163.368 318.023 163.352 318.386 162.729 319.693C160.842 323.65 157.235 326.236 148.502 329.895C141.248 332.934 132.915 334.789 118.971 336.467C114.061 337.058 91.7583 337.583 86.6581 337.228V337.228H86.658Z" fill="#241C1C" stroke="black" stroke-width="0.427986"/>
<path fill-rule="evenodd" clip-rule="evenodd" d="M36.5612 133.049C33.8665 129.622 31.084 126.049 30.3779 125.107L29.0939 123.396L29.2086 116.723C29.2717 113.053 29.5077 109.368 29.733 108.535C30.4283 105.964 32.4746 104.026 37.6982 100.993C49.4945 94.1428 62.7881 89.5414 77.8843 87.0827C84.996 85.9244 102.503 85.476 110.571 86.2454C127.413 87.8516 144.043 92.0594 156.246 97.8024C164.05 101.475 167.996 104.841 168.662 108.394C169.011 110.254 168.05 124.472 167.439 126.487C167.19 127.307 165.813 129.447 164.378 131.242C162.943 133.037 161.005 135.592 160.07 136.919C159.136 138.247 158.056 139.333 157.67 139.333C156.882 139.333 154.007 137.875 148.93 134.902C141.081 130.307 128.886 126.743 114.049 124.709C111.538 124.364 105.564 124.152 98.4276 124.153C85.839 124.155 82.1672 124.573 69.7526 127.419C56.861 130.374 49.3505 133.243 44.4816 137.071C43.3155 137.987 42.1587 138.859 41.9109 139.008C41.662 139.158 39.2685 136.491 36.5612 133.049V133.049Z" fill="#241C1C" stroke="black" stroke-width="0.427986"/>
<path fill-rule="evenodd" clip-rule="evenodd" d="M146.148 86.8342C133.469 82.643 123.507 80.1217 118.143 79.7465C116.73 79.6477 116.411 79.4472 116.16 78.5004C115.996 77.8799 115.957 76.8687 116.075 76.2535C116.257 75.3028 116.512 75.1348 117.777 75.1348C121.301 75.1348 133.805 78.2512 142.724 81.3528C150.388 84.0179 153.852 86.2185 153.852 88.4225C153.852 89.1534 152.023 88.7764 146.148 86.8342V86.8342Z" fill="#241C1C" stroke="black" stroke-width="0.427986"/>
<path fill-rule="evenodd" clip-rule="evenodd" d="M47.33 88.7059C45.1492 86.525 50.2735 83.2258 61.7831 79.4005C69.1992 76.9357 75.7252 75.5628 80.0247 75.5628C83.4598 75.5628 83.6621 75.7199 83.6621 78.3889C83.6621 80.3124 83.1976 80.4854 75.7443 81.3369C67.7287 82.2527 56.9628 85.0702 50.6469 87.905C48.5656 88.8391 47.6777 89.0535 47.33 88.7059V88.7059Z" fill="#241C1C" stroke="black" stroke-width="0.427986"/>
<path fill-rule="evenodd" clip-rule="evenodd" d="M28.6619 95.4641C28.9607 86.6867 29.9822 79.3252 33.1824 62.8848C36.6918 44.8555 41.3471 28.3097 43.7088 25.4715C44.0104 25.109 45.6227 24.1519 47.2917 23.3445C51.0224 21.5397 51.2834 21.7532 50.9592 26.3445C50.4258 33.8987 44.1058 69.0275 41.8733 76.8467C40.6886 80.9962 36.3931 89.8841 31.6345 98.032L28.3851 103.596L28.6619 95.4641Z" fill="#800000" stroke="black" stroke-width="0.427986"/>
<path fill-rule="evenodd" clip-rule="evenodd" d="M167.323 98.5844C164.011 93.2587 159.202 84.0178 158.111 80.8829C157.625 79.4869 156.767 75.2632 156.205 71.497C155.642 67.7307 154.397 61.0862 153.438 56.7314C150.973 45.5364 149.568 36.8367 149.594 32.92C149.62 29.0264 150.511 23.522 151.232 22.8013C151.894 22.1387 154.091 23.3226 156.193 25.4757C157.718 27.0372 157.812 27.3224 159.188 34.527C159.97 38.6184 161.197 44.277 161.915 47.1017C164.923 58.9225 167.039 70.9314 168.177 82.6246C169.426 95.4649 170.025 102.312 169.91 102.436C169.847 102.505 168.682 100.771 167.323 98.5844V98.5844Z" fill="#800000" stroke="black" stroke-width="0.427986"/>
<path fill-rule="evenodd" clip-rule="evenodd" d="M177.485 214.551C177.599 209.545 177.647 209.302 178.531 209.176C179.708 209.009 180.086 210.113 180.01 213.49C179.925 217.24 179.185 219.794 178.183 219.794C177.415 219.794 177.372 219.47 177.485 214.551V214.551Z" fill="#800000" stroke="black" stroke-width="0.427986"/>
<path fill-rule="evenodd" clip-rule="evenodd" d="M16.9899 216.905C16.8207 216.493 16.6891 214.326 16.6975 212.09C16.7184 206.475 18.0439 204.143 19.0694 207.917C19.6167 209.932 19.3231 215.462 18.5969 216.819C18.0426 217.855 17.3942 217.89 16.9899 216.905V216.905Z" fill="#800000" stroke="black" stroke-width="0.427986"/>
</svg>
