<svg width="200" height="340" viewBox="0 0 200 340" fill="none" xmlns="http://www.w3.org/2000/svg">
<path d="M178.389 139.677C179.029 140.62 179.145 151.543 178.715 170.388C178.05 199.566 178.053 199.639 180.215 201.39C184.285 204.685 184.052 217.025 180.696 223.641C180.268 224.485 178.447 224.325 178.371 225.268C176.261 251.616 175.572 291.38 175.212 296.641C173.822 316.924 173.456 318.692 169.601 324.129C168.066 326.294 166.859 329.247 166.83 330.629C166.784 332.799 166.266 333.183 163.027 333.451C160.805 333.635 159.277 333.319 159.277 332.676C159.277 331.971 158.312 332.082 156.527 332.991C153.766 334.399 140.723 336.823 132.653 337.525C108.284 339.644 83.0854 340.965 59.2773 336.481C51.58 334.965 47.9355 333.772 41.5438 331.259C40.5055 330.85 39.8033 330.36 38.3131 330.384C37.8008 330.392 37.5097 331.277 36.9251 331.261C36.1113 331.237 33.8698 331.336 32.9336 331.149C29.6773 330.497 31.9883 326.455 29.6474 322.822C24.6048 322.944 24.9257 304.377 23.5661 294.972C22.2053 285.559 21.9861 276.013 21.5088 266.515C21.1368 259.113 21.3581 258.636 20.8808 244.292C20.4297 230.737 20.6697 221.971 20.1278 222.793C19.4089 223.884 18.9772 223.799 17.8651 222.346C15.8163 219.67 14.3518 212.952 15.4934 206.939C16.6773 200.704 17.8968 199.641 19.8363 199.641C21.059 199.641 20.2861 195.072 21.2773 169.61C21.4583 145.968 22.2178 146.77 22.3333 139.981C21.4597 138.569 18.0273 137.674 18.0273 137.674C15.6898 137.692 11.3023 138.577 8.27732 139.641C1.83293 141.908 1.58172 141.943 0.795506 140.67C0.0442662 139.455 2.46565 134.669 4.92496 132.509C7.98582 129.821 12.995 127.641 16.1126 127.641C23.3506 124.036 21.2686 121.199 21.3534 113.482C21.1801 102.5 23.0152 83.762 21.6833 71.391C16.8118 34.2625 32.8709 28.341 33.0763 20.0589C31.3529 19.3882 32.2606 17.3169 33.9822 15.4151C36.4528 12.685 39.8409 11.0623 49.3268 8.06571C76.621 -1.19244 107.222 -3.35817 148.278 6.22099C162.711 9.58851 168.693 13.1213 170.917 17.3697C172.313 20.0358 172.133 20.577 171.528 21.3661C184.374 50.0982 178.883 51.796 178.737 76.5757C178.868 90.8955 178.408 105.911 179.277 113.619C180.25 123.097 178.597 123.892 181.192 126.888C185.07 128.331 190.039 128.979 195.343 133.589C199.067 136.825 199.371 137.92 199.093 141.291C198.773 145.173 196.279 147.072 194.75 144.597C193.831 143.111 182.304 137.643 180.086 137.642L178.389 139.677Z" fill="black"/>
<path fill-rule="evenodd" clip-rule="evenodd" d="M150.656 80.2565C145.057 78.3784 133.187 75.3182 125.833 73.8568C118.749 72.449 113.099 70.9434 112.744 70.3693C112.624 70.1761 112.152 66.0174 111.693 61.1278C109.979 42.8502 109.245 37.408 108.5 37.459C107.557 37.5236 107.405 40.3839 107.666 53.0936C107.968 67.7624 107.655 70.8599 105.5 74.5372C104.187 76.7788 102.581 77.7028 99.9992 77.7028C98.399 77.7028 97.9134 77.4928 96.9985 76.4055C95.0359 74.0731 94.9063 72.8968 94.5943 54.5915C94.4318 45.0581 94.268 37.21 94.2304 37.1511C93.999 36.7889 93.3536 37.1581 93.1068 37.7931C92.9469 38.205 92.2532 43.6458 91.5653 49.8837C90.1813 62.4351 89.45 66.7234 88.2992 69.0364C87.0051 71.6373 85.937 72.1121 79.802 72.8135C71.9268 73.7138 70.1623 74.0717 61.6939 76.4864C55.3522 78.2947 47.0599 80.2706 45.8129 80.2706C45.6303 80.2706 46.138 77.5262 46.9413 74.1719C48.983 65.6452 51.4084 51.8715 53.7212 35.6684C55.1144 25.9075 55.9482 21.3175 56.5611 20.0347C58.0701 16.8766 60.6333 15.5915 69.5529 13.5212C72.8484 12.7563 76.8824 11.7675 78.5174 11.3238L81.49 10.5171L82.7128 12.0005C83.4705 12.9198 84.6189 13.6868 85.732 14.017C88.1933 14.7472 117.949 14.7163 119.321 13.9821C119.838 13.7057 120.54 12.938 120.883 12.2761L121.505 11.0728L126.986 11.861C139.661 13.6841 146.956 17.1618 146.962 21.3839C146.962 22.1114 146.722 24.4399 146.427 26.5585C145.594 32.5403 146.72 41.4798 150.217 56.6464C151.395 61.7541 152.855 68.8221 153.462 72.353C154.068 75.8838 154.674 79.3987 154.806 80.1637C154.939 80.9287 154.878 81.5371 154.671 81.5157C154.464 81.4943 152.657 80.9277 150.656 80.2566V80.2565Z" fill="#00FF00" stroke="black" stroke-width="0.427986"/>
<path fill-rule="evenodd" clip-rule="evenodd" d="M174.219 122.8C173.958 121.889 173.558 117.195 173.329 112.37C173.1 107.544 172.633 99.4551 172.292 94.3942C171.95 89.3332 171.55 82.4962 171.402 79.2007C170.764 64.9683 167.825 45.9917 164.768 36.3654C162.731 29.9507 162.599 27.955 164.146 26.9415C165.151 26.2831 165.357 26.285 167.15 26.9697C170.617 28.294 172.244 31.3805 174.308 40.5502C175.68 46.6466 175.685 46.7174 175.53 56.5174C175.284 72.0807 175.266 94.6892 175.489 109.669C175.64 119.854 175.563 123.578 175.193 123.951C174.809 124.337 174.581 124.068 174.219 122.8V122.8Z" fill="#00FF00" stroke="black" stroke-width="0.427986"/>
<path fill-rule="evenodd" clip-rule="evenodd" d="M24.5802 123.497C23.7153 121.02 23.6089 114.966 23.8284 80.6986C23.8668 74.6961 23.8888 66.4147 23.8774 62.2953C23.8476 51.5667 25.163 44.511 29.0064 34.7829C31.4685 28.5509 33.5008 25.2542 35.2582 24.6416C37.1308 23.9888 38.9388 24.1003 39.2409 24.8874C39.385 25.2629 37.5637 33.0148 35.1936 42.1138C30.0726 61.7737 29.6567 63.6048 28.8604 69.9991C27.7193 79.1625 27.3306 86.4257 27.0054 104.666C26.7444 119.305 26.5563 123.148 26.0415 124.353L25.4019 125.851L24.5802 123.497V123.497Z" fill="#00FF00" stroke="black" stroke-width="0.427986"/>
<path fill-rule="evenodd" clip-rule="evenodd" d="M29.4614 315.218C28.3192 314.552 27.9236 312.597 26.9973 303.037C24.6495 278.807 23.9637 259.946 23.6826 211.876C23.4595 173.729 23.9067 140.262 24.6659 138.283C24.9692 137.493 26.2879 137.055 27.3504 137.392C29.1046 137.949 29.1347 138.669 28.6916 169.506C27.9829 218.828 28.106 237.12 29.3138 261.954C30.6964 290.381 31.4354 301.103 32.5435 308.815C33.1062 312.731 33.0879 312.877 31.8522 314.346C30.6399 315.787 30.514 315.833 29.4614 315.218V315.218Z" fill="#00FF00" stroke="black" stroke-width="0.427986"/>
<path fill-rule="evenodd" clip-rule="evenodd" d="M167.284 315.593C165.401 314.928 165.118 313.52 165.614 307.293C166.438 296.946 168.661 256.435 169.475 236.913C169.706 231.382 170.098 213.567 170.346 197.325C170.986 155.421 171.42 142.259 172.216 140.721C173.197 138.824 173.965 138.326 174.646 139.146C175.529 140.21 175.975 156.985 175.697 178.707C174.825 246.995 172.46 310.217 170.64 313.901C169.878 315.444 168.634 316.07 167.284 315.593V315.593Z" fill="#00FF00" stroke="black" stroke-width="0.427986"/>
<path fill-rule="evenodd" clip-rule="evenodd" d="M101.046 246.226C101.083 173.283 101.432 128.068 101.962 127.538C102.318 127.182 104.861 127.196 109.249 127.577L112.565 127.866V222.354V316.842L109.249 317.304C107.424 317.558 104.824 317.872 103.471 318.002L101.01 318.238L101.046 246.226V246.226Z" fill="#00FF00" stroke="black" stroke-width="0.427986"/>
<path fill-rule="evenodd" clip-rule="evenodd" d="M91.5942 317.757C89.5934 317.614 87.1859 317.26 86.2444 316.972L84.5325 316.447L84.6266 225.857C84.6784 176.032 84.8393 133.688 84.9841 131.759L85.2474 128.251L87.4578 127.8C90.0255 127.277 95.1822 126.548 95.34 126.686C95.3994 126.738 95.3994 169.808 95.34 222.399L95.2321 318.017L91.5942 317.757H91.5942Z" fill="#00FF00" stroke="black" stroke-width="0.427986"/>
<path fill-rule="evenodd" clip-rule="evenodd" d="M77.6847 314.629C73.0412 313.314 69.1566 311.767 66.3902 310.131C61.7488 307.386 57.1458 306.976 50.5722 308.723L47.8549 309.445L46.8659 308.295C41.7823 302.385 40.8191 283.379 41.2972 198.414L41.5921 146.004L42.6577 144.701C47.4998 138.781 57.836 133.894 73.0813 130.315C79.7916 128.739 80.3861 128.671 80.716 129.442C81.4532 131.163 82.1604 315.703 81.4296 315.631C81.253 315.613 79.5678 315.163 77.6847 314.629V314.629Z" fill="white" stroke="black" stroke-width="0.427986"/>
<path fill-rule="evenodd" clip-rule="evenodd" d="M115.413 310.888C115.259 308.026 115.133 265.82 115.133 217.096V128.507L118.236 128.777C125.42 129.402 140.021 133.928 148.516 138.163C153.512 140.654 153.929 140.958 154.814 142.757C156.799 146.792 156.865 148.883 156.811 205.456C156.737 282.356 156.041 298.042 152.324 306.683C151.834 307.822 151.061 309.09 150.607 309.502C149.828 310.207 149.652 310.208 147.513 309.534C141.98 307.79 139.113 308.137 130.562 311.583C125.548 313.604 117.616 316.086 116.162 316.09C115.863 316.091 115.592 314.207 115.413 310.888V310.888V310.888Z" fill="white" stroke="black" stroke-width="0.427986"/>
<path fill-rule="evenodd" clip-rule="evenodd" d="M97.158 222.576V126.921H98.7268H100.296L100.011 185.02C99.8544 216.975 99.7262 260.019 99.7261 280.675L99.726 318.231H98.442H97.158V222.576Z" fill="white" stroke="black" stroke-width="0.427986"/>
<path fill-rule="evenodd" clip-rule="evenodd" d="M89.2403 332.557C77.046 330.58 66.9476 326.213 57.5693 318.861C55.6862 317.384 53.4045 315.408 52.4989 314.468L50.8523 312.76L53.3549 311.815C56.6591 310.569 59.4741 310.83 62.8149 312.692C76.0473 320.068 82.9758 322.378 94.8535 323.374C106.702 324.366 117.964 322.138 128.658 316.684C136.102 312.888 138.548 312.07 141.616 312.348C142.994 312.473 144.573 312.817 145.124 313.112C146.11 313.639 146.058 313.716 142.137 317.472C134.034 325.236 123.611 330.283 111.355 332.378C105.631 333.357 94.7176 333.445 89.2403 332.557Z" fill="white" stroke="black" stroke-width="0.427986"/>
<path fill-rule="evenodd" clip-rule="evenodd" d="M191.529 139.728C189.175 138.605 186.19 137.356 184.895 136.951C180.51 135.582 179.331 134.995 179.331 134.181C179.331 133.187 181.295 131.629 182.549 131.629C184.095 131.629 190.049 134.843 192.503 137.003C194.453 138.719 196.378 141.323 195.947 141.661C195.871 141.721 193.883 140.851 191.529 139.728Z" fill="white" stroke="black" stroke-width="0.427986"/>
<path fill-rule="evenodd" clip-rule="evenodd" d="M4.09685 137.579C4.98365 136.144 13.0165 131.785 16.5933 130.797C18.7659 130.197 20.1206 131.086 20.1206 133.112C20.1206 133.916 19.9762 134.663 19.7996 134.771C19.376 135.031 5.21782 138.049 4.42284 138.049C4.08391 138.049 3.93723 137.837 4.09685 137.579V137.579Z" fill="white" stroke="black" stroke-width="0.427986"/>
<path fill-rule="evenodd" clip-rule="evenodd" d="M37.775 20.7763C35.7704 19.9519 37.2864 17.7946 41.3059 15.7518C43.976 14.3948 47.928 14.1706 49.0715 15.3112C49.7304 15.9684 49.7438 16.1715 49.1957 17.201C47.9737 19.4965 40.416 21.8625 37.775 20.7763V20.7763Z" fill="white" stroke="black" stroke-width="0.427986"/>
<path fill-rule="evenodd" clip-rule="evenodd" d="M161.754 22.3354C159.417 21.7054 156.388 19.9868 155.006 18.5078C153.767 17.1807 154.24 15.9714 156.275 15.2618C158.24 14.577 159.165 14.6736 161.63 15.8214C166.372 18.0295 168.796 21.5352 166.25 22.5032C164.882 23.0232 164.212 22.9982 161.754 22.3354V22.3354Z" fill="white" stroke="black" stroke-width="0.427986"/>
<path fill-rule="evenodd" clip-rule="evenodd" d="M99.726 11.3739L85.8164 11.1509L85.6904 9.65299C85.4714 7.04996 86.2054 6.5699 90.9947 6.18405C99.8375 5.47162 115.82 6.0566 117.126 7.14047C117.816 7.7131 118.262 9.8446 117.918 10.9273C117.688 11.6544 117.323 11.7772 115.64 11.6949C114.537 11.641 107.376 11.4965 99.726 11.3739Z" fill="#483E37" stroke="black" stroke-width="0.427986"/>
<path fill-rule="evenodd" clip-rule="evenodd" d="M87.3144 337.228C76.5495 336.478 63.1201 334.402 57.0099 332.543C52.7954 331.261 38.6702 325.733 37.8328 325.038C36.9974 324.344 35.6407 321.306 34.9155 318.504C34.2972 316.115 34.3093 315.901 35.1691 314.013C36.0011 312.187 36.053 311.527 35.8296 305.608C35.6962 302.076 35.1041 294.852 34.5136 289.556C33.9232 284.259 33.2263 275.496 32.9649 270.082C32.7035 264.668 32.3131 258.12 32.0975 255.531C31.2326 245.144 30.751 204.765 31.2834 187.267C31.5663 177.969 31.9149 162.797 32.058 153.552L32.3182 136.742L35.666 140.111L39.0138 143.48L38.4643 162.27C37.7537 186.567 37.7448 255.117 38.45 272.222C39.0193 286.033 40.0029 299.099 40.7356 302.586C41.5648 306.532 43.1861 309.234 47.2387 313.423C55.6346 322.102 65.223 328.409 76.2716 332.519C91.1464 338.053 107.409 338.011 123.479 332.395C128.187 330.75 137.129 325.996 140.982 323.091C147.436 318.224 153.421 311.745 155.841 307.005C157.572 303.616 158.393 296.57 159.219 278C159.744 266.206 160.474 214.951 160.54 185.341C160.566 173.336 160.712 158.941 160.865 153.352L161.142 143.19L164.459 139.874L167.776 136.558L167.777 156.242C167.779 206.483 165.998 265.118 163.449 298.74C162.531 310.86 162.543 314.558 163.511 316.823C164.024 318.023 164.008 318.386 163.385 319.693C161.498 323.65 157.891 326.236 149.158 329.895C141.905 332.934 133.571 334.789 119.627 336.467C114.718 337.058 92.4146 337.583 87.3144 337.228H87.3145H87.3144Z" fill="#241C1C" stroke="black" stroke-width="0.427986"/>
<path fill-rule="evenodd" clip-rule="evenodd" d="M37.2175 133.049C34.5229 129.622 31.7404 126.049 31.0342 125.107L29.7503 123.396L29.865 116.723C29.9281 113.053 30.164 109.368 30.3894 108.535C31.0847 105.964 33.131 104.026 38.3546 100.993C50.1509 94.1428 63.4444 89.5414 78.5406 87.0827C85.6524 85.9244 103.16 85.476 111.228 86.2454C128.069 87.8516 144.699 92.0594 156.902 97.8024C164.706 101.475 168.652 104.841 169.319 108.394C169.668 110.254 168.706 124.472 168.095 126.487C167.847 127.307 166.469 129.447 165.034 131.242C163.6 133.037 161.661 135.592 160.727 136.919C159.792 138.247 158.712 139.333 158.326 139.333C157.539 139.333 154.664 137.875 149.586 134.902C141.738 130.307 129.543 126.743 114.705 124.709C112.195 124.364 106.22 124.152 99.084 124.153C86.4953 124.155 82.8236 124.573 70.4089 127.419C57.5173 130.374 50.0068 133.243 45.1379 137.071C43.9719 137.987 42.8151 138.859 42.5673 139.008C42.3184 139.158 39.9249 136.491 37.2175 133.049V133.049Z" fill="#1A1A1A" stroke="black" stroke-width="0.427986"/>
<path fill-rule="evenodd" clip-rule="evenodd" d="M146.804 86.8342C134.125 82.643 124.164 80.1217 118.8 79.7465C117.387 79.6477 117.068 79.4472 116.817 78.5004C116.652 77.8799 116.614 76.8687 116.731 76.2535C116.913 75.3028 117.169 75.1348 118.433 75.1348C121.958 75.1348 134.461 78.2512 143.381 81.3528C151.044 84.0179 154.508 86.2186 154.508 88.4225C154.508 89.1534 152.68 88.7764 146.804 86.8342V86.8342Z" fill="#241C1C" stroke="black" stroke-width="0.427986"/>
<path fill-rule="evenodd" clip-rule="evenodd" d="M47.9864 88.7059C45.8055 86.5251 50.9299 83.2258 62.4395 79.4005C69.8556 76.9357 76.3815 75.5628 80.681 75.5628C84.1162 75.5628 84.3184 75.72 84.3184 78.3889C84.3184 80.3124 83.8539 80.4854 76.4007 81.3369C68.3851 82.2527 57.6192 85.0702 51.3033 87.905C49.222 88.8391 48.334 89.0536 47.9864 88.7059V88.7059Z" fill="#241C1C" stroke="black" stroke-width="0.427986"/>
<path fill-rule="evenodd" clip-rule="evenodd" d="M29.3183 95.4641C29.6171 86.6868 30.6386 79.3252 33.8387 62.8847C37.3482 44.8555 42.0034 28.3097 44.3652 25.4715C44.6668 25.109 46.2791 24.1519 47.9481 23.3445C51.6788 21.5397 51.9398 21.7532 51.6156 26.3445C51.0822 33.8987 44.7622 69.0274 42.5297 76.8467C41.3449 80.9961 37.0494 89.8841 32.2909 98.032L29.0415 103.596L29.3183 95.4641V95.4641Z" fill="#008000" stroke="black" stroke-width="0.427986"/>
<path fill-rule="evenodd" clip-rule="evenodd" d="M167.979 98.5844C164.668 93.2587 159.859 84.0178 158.768 80.8828C158.282 79.4869 157.424 75.2632 156.861 71.4969C156.299 67.7306 155.054 61.0862 154.095 56.7314C151.629 45.5364 150.225 36.8367 150.251 32.92C150.277 29.0264 151.168 23.522 151.888 22.8013C152.551 22.1387 154.747 23.3226 156.85 25.4757C158.374 27.0372 158.469 27.3224 159.845 34.5269C160.626 38.6184 161.853 44.277 162.572 47.1017C165.579 58.9225 167.696 70.9314 168.833 82.6245C170.083 95.4649 170.682 102.312 170.566 102.436C170.503 102.505 169.339 100.771 167.979 98.5844V98.5844Z" fill="#008000" stroke="black" stroke-width="0.427986"/>
<path fill-rule="evenodd" clip-rule="evenodd" d="M178.141 214.551C178.256 209.545 178.303 209.302 179.187 209.176C180.364 209.009 180.743 210.113 180.666 213.49C180.582 217.24 179.842 219.794 178.839 219.794C178.072 219.794 178.028 219.47 178.141 214.551V214.551Z" fill="#008000" stroke="black" stroke-width="0.427986"/>
<path fill-rule="evenodd" clip-rule="evenodd" d="M17.6462 216.905C17.4771 216.493 17.3455 214.326 17.3538 212.09C17.3747 206.475 18.7003 204.143 19.7258 207.917C20.2731 209.932 19.9795 215.462 19.2532 216.819C18.699 217.855 18.0505 217.89 17.6462 216.905V216.905Z" fill="#008000" stroke="black" stroke-width="0.427986"/>
</svg>
