<svg width="199" height="340" viewBox="0 0 199 340" fill="none" xmlns="http://www.w3.org/2000/svg">
<path d="M177.836 139.677C178.477 140.621 178.593 151.543 178.163 170.388C177.498 199.566 177.501 199.639 179.663 201.39C183.732 204.685 183.5 217.025 180.144 223.641C179.716 224.485 177.894 224.325 177.819 225.268C175.709 251.616 175.02 291.38 174.659 296.641C173.27 316.924 172.904 318.692 169.049 324.129C167.514 326.294 166.306 329.247 166.278 330.629C166.232 332.799 165.714 333.183 162.475 333.451C160.253 333.635 158.725 333.319 158.725 332.676C158.725 331.971 157.76 332.082 155.975 332.991C153.213 334.399 140.171 336.823 132.101 337.525C107.732 339.644 82.5334 340.965 58.7253 336.481C51.0279 334.965 47.3835 333.772 40.9917 331.259C39.9534 330.85 39.2512 330.36 37.7611 330.384C37.2487 330.392 36.9577 331.277 36.3731 331.261C35.5592 331.237 33.3178 331.336 32.3815 331.149C29.1253 330.497 31.4363 326.455 29.0953 322.823C24.0527 322.944 24.3736 304.377 23.014 294.972C21.6532 285.559 21.434 276.013 20.9567 266.515C20.5848 259.113 20.806 258.636 20.3287 244.292C19.8775 230.737 20.1177 221.971 19.5757 222.793C18.8568 223.884 18.4251 223.799 17.313 222.346C15.2642 219.67 13.7997 212.952 14.9414 206.939C16.1252 200.704 17.3448 199.641 19.2843 199.641C20.5069 199.641 19.734 195.072 20.7253 169.61C20.9062 145.968 21.6657 146.77 21.7812 139.981C20.9076 138.569 17.4753 137.674 17.4753 137.674C15.1378 137.692 10.7503 138.577 7.72525 139.641C1.28086 141.908 1.02962 141.943 0.243412 140.67C-0.507828 139.455 1.91357 134.669 4.37288 132.509C7.43374 129.821 12.4429 127.641 15.5606 127.641C22.7985 124.036 20.7165 121.199 20.8013 113.482C20.628 102.5 22.4631 83.762 21.1312 71.3911C16.2597 34.2625 32.3189 28.341 32.5242 20.0589C30.8008 19.3882 31.7086 17.317 33.4301 15.4151C35.9008 12.6851 39.2888 11.0623 48.7747 8.06575C76.0689 -1.1924 106.67 -3.3582 147.726 6.22096C162.159 9.58848 168.141 13.1213 170.365 17.3697C171.76 20.0358 171.581 20.577 170.976 21.3661C183.822 50.0982 178.331 51.796 178.185 76.5757C178.316 90.8955 177.856 105.911 178.725 113.619C179.698 123.097 178.045 123.892 180.64 126.888C184.517 128.331 189.486 128.979 194.791 133.589C198.515 136.825 198.819 137.92 198.541 141.291C198.221 145.173 195.727 147.072 194.198 144.597C193.279 143.111 181.752 137.643 179.534 137.642L177.836 139.677Z" fill="black"/>
<path fill-rule="evenodd" clip-rule="evenodd" d="M150.104 80.2565C144.505 78.3784 132.635 75.3182 125.281 73.8568C118.197 72.449 112.547 70.9434 112.192 70.3693C112.072 70.1761 111.599 66.0174 111.141 61.1278C109.427 42.8502 108.693 37.4079 107.948 37.459C107.005 37.5236 106.853 40.3839 107.114 53.0936C107.416 67.7624 107.103 70.8599 104.948 74.5372C103.635 76.7788 102.029 77.7027 99.4471 77.7027C97.8469 77.7027 97.3613 77.4928 96.4464 76.4055C94.4838 74.073 94.3541 72.8968 94.0421 54.5915C93.8797 45.0581 93.716 37.2099 93.6784 37.1511C93.447 36.7889 92.8015 37.1581 92.5548 37.7931C92.3948 38.205 91.7011 43.6458 91.0132 49.8837C89.6292 62.4351 88.8979 66.7234 87.7471 69.0364C86.4531 71.6373 85.3849 72.112 79.2499 72.8134C71.3747 73.7138 69.6102 74.0717 61.1418 76.4864C54.8001 78.2947 46.5078 80.2706 45.2608 80.2706C45.0782 80.2706 45.5859 77.5262 46.3892 74.1719C48.431 65.6452 50.8563 51.8714 53.1691 35.6683C54.5623 25.9074 55.3961 21.3175 56.009 20.0347C57.518 16.8766 60.0812 15.5915 69.0008 13.5212C72.2963 12.7563 76.3303 11.7675 77.9653 11.3238L80.9379 10.5171L82.1607 12.0005C82.9184 12.9198 84.0667 13.6867 85.1798 14.017C87.6411 14.7472 117.397 14.7163 118.769 13.9821C119.286 13.7057 119.988 12.938 120.331 12.2761L120.953 11.0727L126.434 11.861C139.109 13.6841 146.404 17.1618 146.409 21.3839C146.41 22.1114 146.17 24.4399 145.875 26.5585C145.042 32.5403 146.168 41.4798 149.665 56.6464C150.843 61.7541 152.303 68.8221 152.91 72.353C153.516 75.8838 154.121 79.3987 154.254 80.1637C154.387 80.9287 154.326 81.5371 154.119 81.5157C153.912 81.4943 152.105 80.9276 150.104 80.2565V80.2565Z" fill="#FFD42A" stroke="black" stroke-width="0.427986"/>
<path fill-rule="evenodd" clip-rule="evenodd" d="M173.666 122.8C173.406 121.889 173.006 117.195 172.777 112.37C172.548 107.544 172.081 99.4551 171.74 94.3941C171.398 89.3332 170.998 82.4962 170.85 79.2007C170.212 64.9683 167.273 45.9916 164.216 36.3653C162.179 29.9506 162.047 27.9549 163.594 26.9414C164.599 26.283 164.805 26.285 166.598 26.9697C170.065 28.294 171.692 31.3805 173.756 40.5502C175.128 46.6465 175.133 46.7174 174.978 56.5174C174.732 72.0806 174.714 94.6892 174.937 109.669C175.088 119.854 175.011 123.578 174.641 123.951C174.257 124.337 174.029 124.067 173.666 122.799L173.666 122.8Z" fill="#FFD42A" stroke="black" stroke-width="0.427986"/>
<path fill-rule="evenodd" clip-rule="evenodd" d="M24.0281 123.497C23.1632 121.02 23.0568 114.966 23.2763 80.6986C23.3147 74.6961 23.3368 66.4146 23.3254 62.2953C23.2956 51.5666 24.6109 44.511 28.4542 34.7829C30.9164 28.5509 32.9487 25.2542 34.7061 24.6416C36.5787 23.9888 38.3868 24.1003 38.6888 24.8874C38.8329 25.2629 37.0116 33.0148 34.6415 42.1138C29.5205 61.7737 29.1046 63.6047 28.3083 69.999C27.1672 79.1625 26.7785 86.4257 26.4533 104.666C26.1923 119.305 26.0041 123.148 25.4894 124.353L24.8498 125.851L24.0281 123.497V123.497Z" fill="#FFD42A" stroke="black" stroke-width="0.427986"/>
<path fill-rule="evenodd" clip-rule="evenodd" d="M28.9093 315.218C27.7671 314.552 27.3715 312.597 26.4452 303.037C24.0974 278.807 23.4115 259.946 23.1305 211.876C22.9074 173.729 23.3545 140.262 24.1137 138.283C24.4171 137.493 25.7358 137.055 26.7982 137.392C28.5525 137.949 28.5826 138.669 28.1395 169.506C27.4307 218.828 27.5539 237.12 28.7617 261.954C30.1442 290.381 30.8833 301.103 31.9914 308.815C32.5541 312.731 32.5357 312.877 31.3001 314.346C30.0877 315.787 29.9619 315.833 28.9093 315.218V315.218Z" fill="#FFD42A" stroke="black" stroke-width="0.427986"/>
<path fill-rule="evenodd" clip-rule="evenodd" d="M166.732 315.593C164.849 314.928 164.566 313.52 165.062 307.293C165.886 296.946 168.109 256.435 168.923 236.913C169.154 231.382 169.546 213.567 169.794 197.325C170.433 155.421 170.868 142.259 171.664 140.721C172.644 138.824 173.413 138.326 174.094 139.146C174.977 140.21 175.422 156.985 175.145 178.707C174.273 246.995 171.907 310.217 170.087 313.901C169.325 315.444 168.082 316.07 166.732 315.593V315.593Z" fill="#FFD42A" stroke="black" stroke-width="0.427986"/>
<path fill-rule="evenodd" clip-rule="evenodd" d="M100.494 246.226C100.531 173.283 100.88 128.068 101.41 127.538C101.766 127.182 104.309 127.196 108.697 127.577L112.013 127.866V222.354V316.842L108.697 317.304C106.872 317.558 104.272 317.872 102.919 318.002L100.458 318.238L100.494 246.226V246.226Z" fill="#FFD42A" stroke="black" stroke-width="0.427986"/>
<path fill-rule="evenodd" clip-rule="evenodd" d="M91.0421 317.757C89.0412 317.614 86.6338 317.26 85.6923 316.972L83.9803 316.447L84.0745 225.857C84.1263 176.032 84.2872 133.688 84.432 131.759L84.6953 128.251L86.9057 127.8C89.4733 127.277 94.6301 126.548 94.7879 126.686C94.8473 126.738 94.8473 169.808 94.7879 222.399L94.6799 318.017L91.0421 317.757H91.0421Z" fill="#FFD42A" stroke="black" stroke-width="0.427986"/>
<path fill-rule="evenodd" clip-rule="evenodd" d="M77.1326 314.629C72.489 313.314 68.6045 311.767 65.8381 310.131C61.1967 307.386 56.5937 306.976 50.0201 308.723L47.3028 309.445L46.3138 308.295C41.2302 302.385 40.267 283.379 40.7451 198.414L41.04 146.004L42.1056 144.701C46.9477 138.781 57.2839 133.894 72.5292 130.315C79.2395 128.739 79.834 128.671 80.1639 129.442C80.901 131.163 81.6083 315.703 80.8774 315.631C80.7009 315.613 79.0157 315.163 77.1326 314.629V314.629Z" fill="white" stroke="black" stroke-width="0.427986"/>
<path fill-rule="evenodd" clip-rule="evenodd" d="M114.861 310.888C114.707 308.026 114.581 265.82 114.581 217.096V128.507L117.684 128.777C124.868 129.402 139.469 133.928 147.964 138.163C152.96 140.654 153.377 140.958 154.261 142.757C156.247 146.792 156.313 148.883 156.259 205.456C156.184 282.356 155.489 298.042 151.772 306.683C151.282 307.822 150.509 309.09 150.055 309.502C149.276 310.207 149.1 310.208 146.961 309.534C141.428 307.79 138.56 308.137 130.01 311.583C124.996 313.604 117.064 316.086 115.61 316.09C115.311 316.091 115.04 314.207 114.861 310.888V310.888V310.888Z" fill="white" stroke="black" stroke-width="0.427986"/>
<path fill-rule="evenodd" clip-rule="evenodd" d="M96.6059 222.576V126.921H98.1747H99.7434L99.4588 185.02C99.3023 216.975 99.1741 260.019 99.174 280.675L99.1738 318.231H97.8899H96.6059V222.576Z" fill="white" stroke="black" stroke-width="0.427986"/>
<path fill-rule="evenodd" clip-rule="evenodd" d="M88.6882 332.557C76.4939 330.58 66.3955 326.213 57.0172 318.861C55.1341 317.384 52.8524 315.408 51.9468 314.468L50.3002 312.76L52.8027 311.815C56.107 310.569 58.922 310.83 62.2628 312.692C75.4952 320.068 82.4237 322.378 94.3013 323.374C106.15 324.367 117.412 322.138 128.106 316.684C135.55 312.888 137.996 312.07 141.064 312.348C142.442 312.473 144.021 312.817 144.572 313.112C145.558 313.639 145.505 313.716 141.585 317.472C133.482 325.236 123.059 330.283 110.803 332.378C105.079 333.357 94.1655 333.445 88.6882 332.557V332.557Z" fill="white" stroke="black" stroke-width="0.427986"/>
<path fill-rule="evenodd" clip-rule="evenodd" d="M190.977 139.728C188.623 138.605 185.638 137.356 184.343 136.951C179.958 135.582 178.779 134.995 178.779 134.181C178.779 133.187 180.743 131.629 181.997 131.629C183.543 131.629 189.497 134.843 191.951 137.003C193.901 138.719 195.826 141.323 195.395 141.661C195.319 141.721 193.331 140.851 190.977 139.728V139.728Z" fill="white" stroke="black" stroke-width="0.427986"/>
<path fill-rule="evenodd" clip-rule="evenodd" d="M3.54473 137.579C4.43153 136.144 12.4644 131.785 16.0412 130.797C18.2138 130.197 19.5685 131.086 19.5685 133.112C19.5685 133.916 19.424 134.663 19.2475 134.771C18.8238 135.031 4.66571 138.049 3.87073 138.049C3.5318 138.049 3.38511 137.837 3.54473 137.579V137.579Z" fill="white" stroke="black" stroke-width="0.427986"/>
<path fill-rule="evenodd" clip-rule="evenodd" d="M37.2229 20.7763C35.2183 19.9519 36.7343 17.7947 40.7538 15.7519C43.4239 14.3948 47.3759 14.1706 48.5194 15.3112C49.1783 15.9684 49.1917 16.1715 48.6436 17.201C47.4216 19.4965 39.8639 21.8625 37.2229 20.7763V20.7763Z" fill="white" stroke="black" stroke-width="0.427986"/>
<path fill-rule="evenodd" clip-rule="evenodd" d="M161.202 22.3353C158.865 21.7054 155.836 19.9868 154.454 18.5078C153.215 17.1807 153.687 15.9714 155.723 15.2618C157.687 14.577 158.612 14.6736 161.077 15.8214C165.82 18.0295 168.244 21.5352 165.698 22.5032C164.33 23.0232 163.66 22.9982 161.202 22.3353V22.3353Z" fill="white" stroke="black" stroke-width="0.427986"/>
<path fill-rule="evenodd" clip-rule="evenodd" d="M99.1738 11.3739L85.2643 11.1509L85.1382 9.65299C84.9192 7.04996 85.6532 6.5699 90.4425 6.18405C99.2854 5.47162 115.268 6.0566 116.574 7.14047C117.264 7.7131 117.71 9.8446 117.366 10.9273C117.135 11.6544 116.771 11.7772 115.087 11.6949C113.985 11.641 106.824 11.4965 99.1738 11.3739V11.3739Z" fill="#483E37" stroke="black" stroke-width="0.427986"/>
<path fill-rule="evenodd" clip-rule="evenodd" d="M86.7622 337.228C75.9974 336.478 62.568 334.402 56.4578 332.543C52.2433 331.261 38.118 325.733 37.2806 325.038C36.4452 324.344 35.0886 321.306 34.3633 318.504C33.745 316.115 33.7571 315.901 34.6169 314.013C35.4489 312.187 35.5008 311.527 35.2774 305.608C35.1441 302.076 34.5519 294.852 33.9615 289.556C33.3711 284.259 32.6741 275.496 32.4127 270.082C32.1513 264.668 31.761 258.12 31.5454 255.531C30.6804 245.144 30.1989 204.765 30.7313 187.267C31.0141 177.969 31.3627 162.797 31.5058 153.552L31.7661 136.742L35.1139 140.111L38.4616 143.48L37.9121 162.27C37.2016 186.567 37.1926 255.117 37.8978 272.222C38.4671 286.033 39.4507 299.099 40.1835 302.586C41.0126 306.532 42.6339 309.234 46.6866 313.423C55.0825 322.102 64.6708 328.409 75.7194 332.519C90.5942 338.053 106.856 338.011 122.927 332.395C127.635 330.75 136.577 325.996 140.43 323.091C146.883 318.224 152.868 311.745 155.289 307.005C157.02 303.616 157.841 296.57 158.667 278C159.192 266.206 159.922 214.951 159.987 185.341C160.014 173.336 160.16 158.941 160.313 153.352L160.59 143.19L163.907 139.874L167.224 136.558L167.224 156.242C167.226 206.483 165.446 265.118 162.897 298.74C161.978 310.86 161.991 314.558 162.959 316.823C163.472 318.023 163.456 318.386 162.833 319.693C160.946 323.65 157.339 326.236 148.606 329.895C141.353 332.934 133.019 334.789 119.075 336.467C114.165 337.058 91.8625 337.583 86.7623 337.228H86.7623H86.7622Z" fill="#241C1C" stroke="black" stroke-width="0.427986"/>
<path fill-rule="evenodd" clip-rule="evenodd" d="M36.6654 133.049C33.9708 129.622 31.1883 126.049 30.4821 125.107L29.1982 123.396L29.3129 116.723C29.376 113.053 29.6119 109.368 29.8373 108.535C30.5326 105.964 32.5788 104.026 37.8024 100.993C49.5988 94.1428 62.8923 89.5414 77.9885 87.0827C85.1002 85.9244 102.608 85.476 110.676 86.2454C127.517 87.8516 144.147 92.0594 156.35 97.8024C164.154 101.475 168.1 104.841 168.767 108.394C169.116 110.254 168.154 124.472 167.543 126.487C167.294 127.307 165.917 129.447 164.482 131.242C163.048 133.037 161.109 135.592 160.175 136.919C159.24 138.247 158.16 139.333 157.774 139.333C156.987 139.333 154.111 137.875 149.034 134.902C141.186 130.307 128.991 126.743 114.153 124.709C111.643 124.364 105.668 124.152 98.5318 124.153C85.9432 124.155 82.2715 124.573 69.8568 127.419C56.9652 130.374 49.4547 133.243 44.5858 137.071C43.4197 137.987 42.263 138.859 42.0152 139.008C41.7663 139.158 39.3728 136.491 36.6654 133.049V133.049Z" fill="#1A1A1A" stroke="black" stroke-width="0.427986"/>
<path fill-rule="evenodd" clip-rule="evenodd" d="M146.252 86.8342C133.573 82.643 123.612 80.1217 118.247 79.7465C116.835 79.6477 116.516 79.4472 116.265 78.5004C116.1 77.8799 116.062 76.8687 116.179 76.2535C116.361 75.3028 116.616 75.1348 117.881 75.1348C121.406 75.1348 133.909 78.2512 142.828 81.3528C150.492 84.0179 153.956 86.2185 153.956 88.4225C153.956 89.1534 152.128 88.7764 146.252 86.8342H146.252Z" fill="#241C1C" stroke="black" stroke-width="0.427986"/>
<path fill-rule="evenodd" clip-rule="evenodd" d="M47.4343 88.7059C45.2534 86.525 50.3778 83.2258 61.8874 79.4005C69.3035 76.9357 75.8294 75.5628 80.1289 75.5628C83.5641 75.5628 83.7663 75.72 83.7663 78.3889C83.7663 80.3124 83.3019 80.4854 75.8486 81.3369C67.833 82.2527 57.0671 85.0702 50.7512 87.905C48.6699 88.8391 47.7819 89.0535 47.4343 88.7059V88.7059Z" fill="#241C1C" stroke="black" stroke-width="0.427986"/>
<path fill-rule="evenodd" clip-rule="evenodd" d="M28.7662 95.4641C29.065 86.6867 30.0864 79.3252 33.2866 62.8847C36.7961 44.8555 41.4513 28.3096 43.8131 25.4714C44.1147 25.109 45.727 24.1518 47.396 23.3444C51.1267 21.5396 51.3877 21.7531 51.0635 26.3444C50.5301 33.8987 44.21 69.0274 41.9775 76.8467C40.7928 80.9961 36.4973 89.8841 31.7388 98.032L28.4894 103.596L28.7662 95.4641V95.4641Z" fill="#AA8800" stroke="black" stroke-width="0.427986"/>
<path fill-rule="evenodd" clip-rule="evenodd" d="M167.427 98.5844C164.115 93.2587 159.307 84.0178 158.215 80.8829C157.729 79.4869 156.872 75.2632 156.309 71.4969C155.747 67.7306 154.501 61.0862 153.542 56.7314C151.077 45.5365 149.672 36.8367 149.699 32.92C149.725 29.0264 150.615 23.522 151.336 22.8013C151.999 22.1387 154.195 23.3226 156.297 25.4757C157.822 27.0371 157.917 27.3223 159.292 34.5269C160.074 38.6183 161.301 44.277 162.02 47.1017C165.027 58.9225 167.144 70.9314 168.281 82.6245C169.531 95.4649 170.129 102.312 170.014 102.436C169.951 102.505 168.787 100.771 167.427 98.5844Z" fill="#AA8800" stroke="black" stroke-width="0.427986"/>
<path fill-rule="evenodd" clip-rule="evenodd" d="M177.589 214.551C177.704 209.545 177.751 209.302 178.635 209.176C179.812 209.009 180.191 210.113 180.114 213.49C180.03 217.24 179.289 219.794 178.287 219.794C177.519 219.794 177.476 219.47 177.589 214.551V214.551Z" fill="#AA8800" stroke="black" stroke-width="0.427986"/>
<path fill-rule="evenodd" clip-rule="evenodd" d="M17.0941 216.905C16.925 216.493 16.7934 214.326 16.8017 212.09C16.8226 206.475 18.1482 204.143 19.1737 207.917C19.7209 209.932 19.4274 215.462 18.7011 216.819C18.1468 217.855 17.4984 217.89 17.0941 216.905V216.905Z" fill="#806600" stroke="black" stroke-width="0.427986"/>
</svg>
